Coordinates
version=1
nRows=21
nColumns=12
inDegrees=yes

Units are S.I. units (second, meters, Newtons, ...)
Angles are in degrees

endheader
time	SC_y	SC_z	SC_x	AC_y	AC_z	AC_x	GH_y	GH_z	GH_yy	EL_x	PS_y
       0.0              -55.75         -3.737          27.58          63.11         -14.56          18.69          81.06          17.86         -172.3          138.7          52.09
   0.03344              -55.75         -3.733          27.58          63.11         -14.55          18.69          81.07          17.86         -172.3          138.7           52.1
   0.06688              -55.74         -3.728          27.59           63.1         -14.55          18.69          81.07          17.86         -172.3          138.7          52.11
    0.1003              -55.74         -3.723          27.59          63.09         -14.55          18.69          81.08          17.86         -172.2          138.7          52.13
    0.1338              -55.74         -3.718          27.59          63.09         -14.54          18.68          81.09          17.87         -172.2          138.7          52.14
    0.1672              -55.73         -3.713          27.59          63.08         -14.54          18.68           81.1          17.87         -172.2          138.6          52.16
    0.2006              -55.73         -3.707          27.59          63.08         -14.53          18.68          81.11          17.87         -172.1          138.6          52.17
    0.2341              -55.73         -3.701           27.6          63.07         -14.53          18.67          81.11          17.88         -172.1          138.6          52.19
    0.2675              -55.72         -3.694           27.6          63.06         -14.52          18.67          81.12          17.88         -172.0          138.6          52.21
    0.3009              -55.72         -3.687           27.6          63.05         -14.52          18.67          81.13          17.88         -172.0          138.6          52.23
    0.3344              -55.71         -3.679          27.61          63.04         -14.51          18.66          81.15          17.89         -171.9          138.6          52.25
    0.3678              -55.71         -3.671          27.61          63.04          -14.5          18.66          81.16          17.89         -171.8          138.6          52.28
    0.4013               -55.7         -3.662          27.61          63.03          -14.5          18.66          81.17          17.89         -171.8          138.5           52.3
    0.4347               -55.7         -3.652          27.62          63.01         -14.49          18.65          81.19           17.9         -171.7          138.5          52.33
    0.4681              -55.69         -3.642          27.62           63.0         -14.48          18.65           81.2           17.9         -171.6          138.5          52.36
    0.5016              -55.68          -3.63          27.62          62.99         -14.47          18.64          81.22          17.91         -171.5          138.5          52.39
     0.535              -55.67         -3.618          27.63          62.98         -14.46          18.63          81.24          17.92         -171.4          138.4          52.43
    0.5685              -55.67         -3.605          27.64          62.96         -14.45          18.63          81.26          17.92         -171.3          138.4          52.46
    0.6019              -55.66          -3.59          27.64          62.94         -14.44          18.62          81.28          17.93         -171.2          138.4          52.51
    0.6353              -55.65         -3.574          27.65          62.93         -14.43          18.61           81.3          17.94         -171.1          138.3          52.55
    0.6688              -55.64         -3.556          27.65          62.91         -14.41           18.6          81.33          17.95         -170.9          138.3           52.6
